<?xml version="1.0" encoding="UTF-8" standalone="no"?>
<!DOCTYPE svg PUBLIC "-//W3C//DTD SVG 1.1//EN"
 "http://www.w3.org/Graphics/SVG/1.1/DTD/svg11.dtd">
<!-- Generated by graphviz version 2.42.3 (0)
 -->
<!-- Title: cnn Pages: 1 -->
<svg width="944pt" height="145pt"
 viewBox="0.00 0.00 944.00 145.00" xmlns="http://www.w3.org/2000/svg" xmlns:xlink="http://www.w3.org/1999/xlink">
<g id="graph0" class="graph" transform="scale(1 1) rotate(0) translate(4 141)">
<title>cnn</title>
<polygon fill="white" stroke="transparent" points="-4,4 -4,-141 940,-141 940,4 -4,4"/>
<g id="clust2" class="cluster">
<title>cluster</title>
<path fill="#f0f0f0" stroke="#f0f0f0" d="M677,-13C677,-13 916,-13 916,-13 922,-13 928,-19 928,-25 928,-25 928,-117 928,-117 928,-123 922,-129 916,-129 916,-129 677,-129 677,-129 671,-129 665,-123 665,-117 665,-117 665,-25 665,-25 665,-19 671,-13 677,-13"/>
<text text-anchor="middle" x="796.5" y="-110.6" font-family="Source Sans Pro" font-size="18.00" fill="#606060">time&#45;distributed (position&#45;wise)</text>
</g>
<!-- words -->
<g id="node1" class="node">
<title>words</title>
<text text-anchor="middle" x="123.5" y="-50.8" font-family="Source Sans Pro" font-size="24.00" fill="#606060">Word Vector Sequence</text>
</g>
<!-- forward_lstm -->
<g id="node2" class="node">
<title>forward_lstm</title>
<path fill="none" stroke="#606060" d="M443.5,-114C443.5,-114 303.5,-114 303.5,-114 297.5,-114 291.5,-108 291.5,-102 291.5,-102 291.5,-78 291.5,-78 291.5,-72 297.5,-66 303.5,-66 303.5,-66 443.5,-66 443.5,-66 449.5,-66 455.5,-72 455.5,-78 455.5,-78 455.5,-102 455.5,-102 455.5,-108 449.5,-114 443.5,-114"/>
<text text-anchor="middle" x="373.5" y="-83.8" font-family="Source Sans Pro" font-size="24.00" fill="#606060">Forward LSTM</text>
</g>
<!-- words&#45;&gt;forward_lstm -->
<g id="edge1" class="edge">
<title>words&#45;&gt;forward_lstm</title>
<path fill="none" stroke="black" d="M247.05,-73.31C258.54,-74.84 270.05,-76.37 281.18,-77.85"/>
<polygon fill="black" stroke="black" points="280.91,-81.34 291.28,-79.19 281.83,-74.4 280.91,-81.34"/>
</g>
<!-- backward_lstm -->
<g id="node3" class="node">
<title>backward_lstm</title>
<path fill="none" stroke="#606060" d="M452,-48C452,-48 295,-48 295,-48 289,-48 283,-42 283,-36 283,-36 283,-12 283,-12 283,-6 289,0 295,0 295,0 452,0 452,0 458,0 464,-6 464,-12 464,-12 464,-36 464,-36 464,-42 458,-48 452,-48"/>
<text text-anchor="middle" x="373.5" y="-17.8" font-family="Source Sans Pro" font-size="24.00" fill="#606060">Backward LSTM</text>
</g>
<!-- words&#45;&gt;backward_lstm -->
<g id="edge2" class="edge">
<title>words&#45;&gt;backward_lstm</title>
<path fill="none" stroke="black" d="M247.05,-40.69C255.73,-39.54 264.42,-38.38 272.96,-37.25"/>
<polygon fill="black" stroke="black" points="273.44,-40.71 282.89,-35.92 272.51,-33.77 273.44,-40.71"/>
</g>
<!-- forward_lstm&#45;&gt;backward_lstm -->
<g id="edge3" class="edge">
<title>forward_lstm&#45;&gt;backward_lstm</title>
<path fill="none" stroke="black" d="M373.5,-65.85C373.5,-63.38 373.5,-60.9 373.5,-58.42"/>
<polygon fill="black" stroke="black" points="377,-58.23 373.5,-48.23 370,-58.23 377,-58.23"/>
</g>
<!-- concatenate -->
<g id="node4" class="node">
<title>concatenate</title>
<path fill="none" stroke="#606060" d="M637,-81C637,-81 512,-81 512,-81 506,-81 500,-75 500,-69 500,-69 500,-45 500,-45 500,-39 506,-33 512,-33 512,-33 637,-33 637,-33 643,-33 649,-39 649,-45 649,-45 649,-69 649,-69 649,-75 643,-81 637,-81"/>
<text text-anchor="middle" x="574.5" y="-50.8" font-family="Source Sans Pro" font-size="24.00" fill="#606060">Concatenate</text>
</g>
<!-- forward_lstm&#45;&gt;concatenate -->
<g id="edge4" class="edge">
<title>forward_lstm&#45;&gt;concatenate</title>
<path fill="none" stroke="black" d="M455.73,-76.53C467.03,-74.66 478.66,-72.73 490.01,-70.85"/>
<polygon fill="black" stroke="black" points="490.6,-74.3 499.89,-69.21 489.45,-67.39 490.6,-74.3"/>
</g>
<!-- backward_lstm&#45;&gt;concatenate -->
<g id="edge5" class="edge">
<title>backward_lstm&#45;&gt;concatenate</title>
<path fill="none" stroke="black" d="M464.1,-38.86C472.7,-40.29 481.41,-41.73 489.95,-43.14"/>
<polygon fill="black" stroke="black" points="489.44,-46.61 499.88,-44.79 490.59,-39.7 489.44,-46.61"/>
</g>
<!-- dense -->
<g id="node5" class="node">
<title>dense</title>
<path fill="#ffffff" stroke="#606060" d="M758,-81C758,-81 697,-81 697,-81 691,-81 685,-75 685,-69 685,-69 685,-45 685,-45 685,-39 691,-33 697,-33 697,-33 758,-33 758,-33 764,-33 770,-39 770,-45 770,-45 770,-69 770,-69 770,-75 764,-81 758,-81"/>
<text text-anchor="middle" x="727.5" y="-50.8" font-family="Source Sans Pro" font-size="24.00" fill="#606060">Dense</text>
</g>
<!-- concatenate&#45;&gt;dense -->
<g id="edge6" class="edge">
<title>concatenate&#45;&gt;dense</title>
<path fill="none" stroke="black" d="M649.23,-57C657.86,-57 666.53,-57 674.77,-57"/>
<polygon fill="black" stroke="black" points="674.95,-60.5 684.95,-57 674.95,-53.5 674.95,-60.5"/>
</g>
<!-- softmax -->
<g id="node6" class="node">
<title>softmax</title>
<path fill="#ffffff" stroke="#606060" d="M896,-81C896,-81 818,-81 818,-81 812,-81 806,-75 806,-69 806,-69 806,-45 806,-45 806,-39 812,-33 818,-33 818,-33 896,-33 896,-33 902,-33 908,-39 908,-45 908,-45 908,-69 908,-69 908,-75 902,-81 896,-81"/>
<text text-anchor="middle" x="857" y="-50.8" font-family="Source Sans Pro" font-size="24.00" fill="#606060">SoftMax</text>
</g>
<!-- dense&#45;&gt;softmax -->
<g id="edge7" class="edge">
<title>dense&#45;&gt;softmax</title>
<path fill="none" stroke="black" d="M770.25,-57C778.39,-57 787.08,-57 795.69,-57"/>
<polygon fill="black" stroke="black" points="795.71,-60.5 805.71,-57 795.71,-53.5 795.71,-60.5"/>
</g>
</g>
</svg>
